<?xml version="1.0" standalone="no"?>
<!DOCTYPE svg PUBLIC "-//W3C//DTD SVG 20010904//EN"
 "http://www.w3.org/TR/2001/REC-SVG-20010904/DTD/svg10.dtd">
<svg version="1.0" xmlns="http://www.w3.org/2000/svg"
 width="86.000000pt" height="86.000000pt" viewBox="0 0 86.000000 86.000000"
 preserveAspectRatio="xMidYMid meet">
<metadata>
Created by potrace 1.14, written by Peter Selinger 2001-2017
</metadata>
<g transform="translate(0.000000,86.000000) scale(0.100000,-0.100000)"
fill="#000000" stroke="none">
<path d="M395 792 c-92 -16 -193 -78 -247 -152 -55 -74 -87 -197 -57 -216 10
-6 34 10 34 24 5 70 39 144 94 201 44 46 57 50 66 21 3 -11 11 -20 17 -20 6 0
3 11 -6 25 -15 23 -15 25 3 35 27 14 31 13 31 -9 0 -25 16 -36 24 -16 3 8 0
15 -7 15 -8 0 -6 4 3 10 12 8 12 10 -5 10 l-20 1 20 8 c44 18 117 22 173 10
31 -7 49 -14 40 -17 -10 -2 -18 -10 -18 -18 0 -8 0 -17 -1 -21 -2 -21 19 -10
25 12 9 34 22 32 84 -15 55 -42 67 -46 77 -30 17 27 -67 96 -154 124 -46 16
-137 25 -176 18z m186 -35 c66 -28 129 -73 129 -94 0 -10 -12 -5 -39 16 -72
57 -127 76 -221 76 -71 0 -94 -4 -140 -26 -98 -47 -168 -134 -191 -235 -13
-56 -29 -72 -29 -29 0 35 34 120 66 167 35 50 114 108 178 130 74 25 177 23
247 -5z"/>
<path d="M469 732 c0 -4 -2 -15 -4 -24 -2 -13 3 -18 17 -18 16 0 18 3 9 14 -9
11 -9 15 1 18 8 3 6 7 -5 11 -9 3 -17 3 -18 -1z"/>
<path d="M399 708 c-1 -13 -1 -26 0 -30 0 -5 -5 -8 -12 -8 -21 0 -91 -40 -119
-70 -35 -37 -68 -99 -61 -117 9 -23 35 -11 55 27 56 105 186 148 287 95 31
-15 57 -5 48 18 -10 25 -65 48 -136 57 -36 4 -58 8 -47 9 12 1 16 6 12 17 -3
9 -6 18 -6 20 0 2 -4 4 -10 4 -5 0 -11 -10 -11 -22z m149 -62 c17 -9 32 -21
32 -26 0 -13 4 -13 -55 8 -59 22 -98 21 -160 -2 -47 -19 -111 -83 -121 -123
-7 -26 -24 -31 -24 -7 0 54 89 141 170 164 40 12 122 4 158 -14z"/>
<path d="M231 641 c-12 -8 -12 -11 1 -24 18 -18 40 -4 31 19 -6 16 -13 17 -32
5z"/>
<path d="M795 640 c-4 -6 -10 -8 -15 -5 -22 13 -18 -47 6 -93 4 -8 54 19 54
29 0 9 -3 9 -14 0 -11 -9 -15 -8 -20 4 -3 9 -2 13 4 10 6 -4 10 7 10 24 0 31
-14 49 -25 31z m15 -26 c0 -8 -4 -12 -10 -9 -5 3 -10 10 -10 16 0 5 5 9 10 9
6 0 10 -7 10 -16z"/>
<path d="M708 613 c-21 -5 -22 -10 -7 -52 16 -45 5 -48 -21 -6 -27 43 -46 41
-43 -6 2 -25 1 -29 -5 -15 -5 11 -17 23 -28 26 -21 8 -54 2 -54 -10 0 -17 31
-80 39 -80 22 0 41 13 42 29 0 10 2 11 6 4 2 -7 9 -13 14 -13 4 0 6 7 3 15 -4
8 -2 15 4 15 6 0 12 -6 15 -12 4 -13 12 -11 77 22 8 4 16 15 18 24 4 18 -23
67 -36 65 -4 -1 -15 -3 -24 -6z m37 -53 l5 -35 -14 30 c-18 35 -21 64 -6 49 5
-5 12 -25 15 -44z m-140 -32 c7 -18 11 -37 8 -42 -5 -8 -33 46 -33 65 0 19 12
8 25 -23z"/>
<path d="M181 586 c-10 -12 -8 -17 8 -25 26 -14 31 -14 31 3 0 24 -26 38 -39
22z"/>
<path d="M522 541 c-11 -6 -11 -16 0 -49 7 -23 18 -42 25 -42 20 0 21 13 4 57
-12 29 -20 40 -29 34z"/>
<path d="M463 523 c-22 -8 -14 -43 12 -55 14 -6 25 -15 25 -20 0 -4 5 -8 10
-8 6 0 10 11 10 24 0 17 -7 26 -25 30 -14 4 -25 11 -25 16 0 5 7 7 15 4 8 -4
15 -1 15 5 0 11 -16 13 -37 4z"/>
<path d="M374 485 c-7 -18 26 -87 39 -82 7 2 11 13 9 23 -2 15 -1 16 6 5 7
-10 17 -11 37 -4 24 8 25 10 11 22 -11 10 -16 10 -16 2 0 -7 -4 -9 -10 -6 -5
3 -10 17 -10 31 0 21 -4 24 -31 22 -17 -1 -33 -7 -35 -13z m46 -23 c0 -15 -2
-15 -10 -2 -13 20 -13 33 0 25 6 -3 10 -14 10 -23z"/>
<path d="M324 473 c-20 -4 -20 -5 -6 -49 14 -42 17 -45 41 -39 14 4 27 8 29
10 7 7 -31 55 -39 49 -5 -3 -9 0 -9 5 0 6 5 11 10 11 6 0 10 5 10 10 0 6 -3 9
-7 9 -5 -1 -17 -4 -29 -6z m46 -64 c0 -6 -4 -7 -10 -4 -5 3 -10 11 -10 16 0 6
5 7 10 4 6 -3 10 -11 10 -16z"/>
<path d="M677 473 c-13 -3 -17 -11 -14 -23 5 -18 4 -18 -21 -2 -18 12 -24 13
-18 3 5 -8 15 -32 21 -55 l13 -41 10 35 c9 32 10 32 11 8 1 -21 5 -25 21 -21
16 4 18 8 8 27 -10 20 -10 20 8 4 12 -10 25 -14 33 -9 10 7 10 9 -2 14 -9 3
-17 18 -19 34 -3 28 -17 35 -51 26z m33 -29 c0 -8 -4 -12 -10 -9 -5 3 -10 13
-10 21 0 8 5 12 10 9 6 -3 10 -13 10 -21z"/>
<path d="M278 435 c5 -30 -6 -33 -16 -5 -5 13 -11 17 -21 11 -11 -7 -10 -15 8
-45 23 -37 60 -52 46 -18 -4 9 -7 32 -6 50 1 17 -2 32 -7 32 -5 0 -7 -11 -4
-25z"/>
<path d="M600 430 c-4 -26 1 -45 16 -59 21 -23 23 -10 3 34 -9 22 -18 33 -19
25z"/>
<path d="M187 423 c-9 -15 28 -92 40 -85 9 5 9 18 0 50 -10 38 -29 54 -40 35z"/>
<path d="M787 423 c-4 -3 -7 -16 -7 -28 0 -75 -72 -195 -147 -244 -124 -82
-279 -73 -398 25 -28 23 -45 30 -55 24 -22 -13 2 -50 58 -87 67 -46 127 -65
207 -65 109 -1 195 33 269 106 63 62 94 126 110 231 5 30 -20 56 -37 38z m19
-60 c-28 -204 -238 -343 -445 -293 -54 13 -165 80 -175 105 -9 24 6 18 63 -25
145 -109 355 -84 465 56 41 52 76 137 76 182 0 12 5 22 11 22 8 0 10 -15 5
-47z"/>
<path d="M157 414 c-4 -4 -2 -13 5 -21 10 -12 7 -12 -15 -2 -44 20 -45 0 -2
-39 29 -27 41 -33 43 -22 4 21 -22 93 -31 84z"/>
<path d="M518 413 c-3 -4 3 -27 11 -50 11 -29 20 -40 29 -34 10 6 9 15 -1 46
-13 38 -31 55 -39 38z"/>
<path d="M568 378 c16 -41 17 -42 20 -15 2 16 -2 35 -9 43 -22 27 -27 14 -11
-28z"/>
<path d="M467 393 c-9 -18 -7 -93 3 -93 6 0 9 10 7 23 -2 12 -2 17 0 10 5 -13
41 -28 49 -20 5 5 -43 87 -51 87 -2 0 -6 -3 -8 -7z"/>
<path d="M80 386 c0 -2 7 -19 15 -39 13 -32 12 -47 -5 -47 -4 0 -12 18 -19 40
-8 27 -16 37 -25 34 -12 -4 -12 -12 -4 -37 19 -57 35 -68 61 -43 12 12 12 23
4 55 -6 23 -15 41 -19 41 -4 0 -8 -2 -8 -4z"/>
<path d="M437 383 c-10 -9 -9 -23 1 -23 5 0 9 7 9 15 0 17 -1 18 -10 8z"/>
<path d="M393 372 c-9 -6 -6 -18 12 -47 13 -22 27 -39 32 -38 11 4 13 43 2 43
-5 0 -14 11 -21 25 -8 15 -18 21 -25 17z"/>
<path d="M129 341 c6 -10 7 -21 4 -25 -3 -3 1 -6 11 -6 15 0 15 2 0 25 -19 29
-29 34 -15 6z"/>
<path d="M342 352 c-10 -7 -10 -16 1 -48 8 -21 19 -39 26 -38 6 1 18 2 26 3 8
0 15 8 15 17 0 13 -3 14 -14 5 -11 -10 -17 -4 -28 28 -9 28 -17 38 -26 33z"/>
<path d="M617 295 c-21 -25 -52 -52 -68 -61 -42 -21 -121 -29 -160 -15 -24 8
-35 8 -47 -1 -22 -19 18 -45 82 -53 49 -6 81 0 157 30 10 4 19 -3 28 -21 6
-15 14 -24 17 -21 3 3 -1 16 -9 28 -15 21 -14 24 24 67 38 44 48 81 24 89 -6
2 -28 -17 -48 -42z m53 16 c0 -4 -18 -29 -40 -54 -49 -55 -132 -91 -191 -83
-64 9 -90 18 -86 30 3 6 11 9 18 7 8 -3 39 -7 71 -9 72 -5 133 21 179 77 33
39 49 50 49 32z"/>
<path d="M280 313 c0 -26 44 -78 58 -69 9 5 6 18 -11 46 -23 41 -47 53 -47 23z"/>
<path d="M206 295 c-9 -23 3 -43 30 -49 14 -4 22 -11 19 -17 -5 -7 -12 -6 -21
2 -11 9 -14 8 -14 -5 0 -20 24 -21 44 0 18 18 6 54 -19 54 -7 0 -17 5 -21 12
-5 8 -2 9 9 5 10 -3 17 -2 17 3 0 16 -37 11 -44 -5z"/>
<path d="M283 258 c1 -16 5 -28 9 -28 10 0 9 9 -2 35 -8 17 -8 16 -7 -7z"/>
<path d="M644 214 c3 -9 6 -20 6 -25 0 -5 5 -9 11 -9 5 0 8 4 5 9 -4 5 0 12 6
14 10 4 9 8 -2 16 -22 15 -33 13 -26 -5z"/>
<path d="M552 171 c-16 -9 -5 -41 14 -41 15 0 18 18 6 37 -4 7 -13 9 -20 4z"/>
<path d="M414 130 c0 -11 4 -20 9 -20 4 0 12 0 17 0 6 0 10 9 10 20 0 13 -7
20 -19 20 -12 0 -18 -7 -17 -20z"/>
<path d="M483 130 c-1 -14 4 -20 19 -20 14 0 18 5 14 16 -3 9 -6 18 -6 20 0 2
-6 4 -13 4 -7 0 -13 -9 -14 -20z"/>
</g>
</svg>
